<?xml version="1.0" encoding="UTF-8"?>
<svg xmlns="http://www.w3.org/2000/svg" viewBox="0 0 600 900" role="img" aria-label="Susurros del Bosque — Portada de libro">
  <defs>
    <linearGradient id="sb-bg" x1="0" y1="0" x2="0" y2="1">
      <stop offset="0" stop-color="#0c1724"/>
      <stop offset="0.6" stop-color="#162942"/>
      <stop offset="1" stop-color="#0a1120"/>
    </linearGradient>
    <radialGradient id="sb-moon" cx="0.5" cy="0.5" r="0.5">
      <stop offset="0" stop-color="#f5e6c8" stop-opacity="1"/>
      <stop offset="0.7" stop-color="#d4b676" stop-opacity="0.6"/>
      <stop offset="1" stop-color="#d4b676" stop-opacity="0"/>
    </radialGradient>
    <linearGradient id="sb-gold" x1="0" y1="0" x2="1" y2="0">
      <stop offset="0" stop-color="#b08532"/>
      <stop offset="0.5" stop-color="#efd07f"/>
      <stop offset="1" stop-color="#8c6722"/>
    </linearGradient>
    <filter id="sb-grain"><feTurbulence baseFrequency="0.9" numOctaves="2" seed="3"/><feColorMatrix values="0 0 0 0 0  0 0 0 0 0  0 0 0 0 0  0 0 0 0.05 0"/><feComposite in2="SourceGraphic" operator="in"/></filter>
  </defs>
  <rect width="600" height="900" fill="url(#sb-bg)"/>
  <!-- mist layers -->
  <ellipse cx="300" cy="700" rx="320" ry="80" fill="#5b6b84" opacity="0.25"/>
  <ellipse cx="300" cy="760" rx="360" ry="60" fill="#8aa0bf" opacity="0.2"/>
  <!-- moon -->
  <circle cx="300" cy="260" r="120" fill="url(#sb-moon)"/>
  <!-- trees silhouettes (simplified pines) -->
  <g fill="#050910">
    <polygon points="30,900 80,500 130,900"/>
    <polygon points="100,900 150,550 200,900"/>
    <polygon points="180,900 230,480 280,900"/>
    <polygon points="260,900 320,430 380,900"/>
    <polygon points="360,900 420,470 480,900"/>
    <polygon points="450,900 500,520 550,900"/>
    <polygon points="520,900 570,550 620,900"/>
  </g>
  <!-- cloaked figure -->
  <g fill="#030608">
    <path d="M300 610 Q280 570 290 540 Q295 510 310 510 Q325 510 330 540 Q340 570 320 610 L340 760 L280 760 Z"/>
    <path d="M280 760 L260 900 L360 900 L340 760 Z"/>
  </g>
  <!-- grain -->
  <rect width="600" height="900" filter="url(#sb-grain)" opacity="0.4"/>
  <!-- title -->
  <g font-family="Playfair Display, Georgia, serif" text-anchor="middle">
    <text x="300" y="180" font-size="44" font-weight="700" fill="url(#sb-gold)" letter-spacing="4">SUSURROS</text>
    <text x="300" y="220" font-size="20" fill="#d4b676" letter-spacing="6">DEL BOSQUE</text>
  </g>
  <!-- divider -->
  <line x1="210" y1="830" x2="390" y2="830" stroke="#d4b676" stroke-width="0.8" opacity="0.6"/>
  <text x="300" y="860" font-family="Inter, sans-serif" font-size="10" fill="#a39472" text-anchor="middle" letter-spacing="4">DAYAH · FANTASÍA</text>
</svg>
