<?xml version="1.0" encoding="UTF-8"?>
<svg xmlns="http://www.w3.org/2000/svg" viewBox="0 0 800 900" role="img" aria-label="Mapa de Paraguay con zonas de envío">
  <title>Zonas de envío</title>
  <desc>Tres zonas de cobertura: Asunción metro, interior cercano, Chaco y norte.</desc>

  <defs>
    <linearGradient id="zland" x1="0" y1="0" x2="0" y2="1">
      <stop offset="0" stop-color="#f7f3ed"/>
      <stop offset="1" stop-color="#ece5d8"/>
    </linearGradient>
    <linearGradient id="zwater" x1="0" y1="0" x2="0" y2="1">
      <stop offset="0" stop-color="#cfe3ea"/>
      <stop offset="1" stop-color="#b5d0d9"/>
    </linearGradient>
    <filter id="zshadow" x="-40%" y="-40%" width="180%" height="180%">
      <feDropShadow dx="0" dy="3" stdDeviation="3" flood-color="#000" flood-opacity="0.18"/>
    </filter>
  </defs>

  <rect width="800" height="900" fill="#ffffff"/>

  <!-- Country shape (same path as py-map) -->
  <path id="pyShape" d="
    M 280 110 L 390 95 L 500 125 L 560 180 L 610 260 L 595 340 L 630 420 L 640 500
    L 610 560 L 640 640 L 660 720 L 620 790 L 540 810 L 460 790 L 380 760
    L 320 720 L 270 660 L 230 600 L 200 520 L 170 440 L 155 360 L 170 280 L 210 200 L 250 140 Z"
    fill="url(#zland)" stroke="#8b8373" stroke-width="1.2" stroke-linejoin="round" filter="url(#zshadow)"/>

  <!-- Zone 3: Chaco + Norte (top-left half) -->
  <path d="M 280 110 L 390 95 L 500 125 L 560 180 L 610 260 L 595 340 L 500 380 L 350 360 L 170 280 L 210 200 L 250 140 Z"
    fill="#eab308" opacity="0.18"/>

  <!-- Zone 2: Interior Central (middle) -->
  <path d="M 170 280 L 350 360 L 500 380 L 595 340 L 630 420 L 640 500 L 500 520 L 300 500 L 155 360 Z"
    fill="#f59e0b" opacity="0.22"/>

  <!-- Zone 1: Asunción metro (southern pocket) -->
  <path d="M 300 500 L 500 520 L 640 500 L 610 560 L 640 640 L 660 720 L 620 790 L 540 810 L 460 790 L 380 760
    L 320 720 L 270 660 L 230 600 L 200 520 Z"
    fill="#ef4444" opacity="0.22"/>

  <!-- Rivers on top -->
  <path d="M 300 130 Q 290 260 310 380 Q 350 520 370 660 Q 400 750 450 790"
    fill="none" stroke="url(#zwater)" stroke-width="6" stroke-linecap="round" opacity="0.8"/>
  <path d="M 595 340 Q 615 480 625 620 Q 635 720 620 790"
    fill="none" stroke="url(#zwater)" stroke-width="5" stroke-linecap="round" opacity="0.7"/>

  <!-- Country outline retrace on top for clarity -->
  <use href="#pyShape" fill="none" stroke="#8b8373" stroke-width="1.2"/>

  <!-- Zone labels -->
  <g font-family="Inter, system-ui, sans-serif" font-weight="700">
    <text x="310" y="200" font-size="14" fill="#854d0e">Zona 3 · Chaco y Norte</text>
    <text x="280" y="450" font-size="14" fill="#b45309">Zona 2 · Interior</text>
    <text x="380" y="690" font-size="14" fill="#991b1b">Zona 1 · Asunción metro</text>
  </g>

  <!-- Title -->
  <g font-family="Inter, system-ui, sans-serif">
    <text x="400" y="60" text-anchor="middle" font-size="26" font-weight="700" fill="#1a2740" letter-spacing="1">COBERTURA POR ZONA</text>
  </g>

  <!-- Legend -->
  <g transform="translate(60,820)" font-family="Inter, system-ui, sans-serif" font-size="12" fill="#2d3748">
    <rect x="0" y="-10" width="16" height="14" fill="#ef4444" opacity="0.55"/>
    <text x="22" y="0" font-weight="600">Z1 Gratis &gt;1.000.000</text>
    <rect x="180" y="-10" width="16" height="14" fill="#f59e0b" opacity="0.55"/>
    <text x="202" y="0" font-weight="600">Z2 Desde Gs. 150.000</text>
    <rect x="370" y="-10" width="16" height="14" fill="#eab308" opacity="0.55"/>
    <text x="392" y="0" font-weight="600">Z3 Desde Gs. 250.000</text>
  </g>
</svg>
