<?xml version="1.0" encoding="UTF-8"?>
<svg xmlns="http://www.w3.org/2000/svg" viewBox="0 0 600 900" role="img" aria-label="El Último Código — Portada">
  <defs>
    <linearGradient id="ec-bg" x1="0" y1="0" x2="0" y2="1">
      <stop offset="0" stop-color="#05060c"/>
      <stop offset="0.5" stop-color="#0b1126"/>
      <stop offset="1" stop-color="#020308"/>
    </linearGradient>
    <linearGradient id="ec-gold" x1="0" y1="0" x2="1" y2="0">
      <stop offset="0" stop-color="#b08532"/>
      <stop offset="0.5" stop-color="#efd07f"/>
      <stop offset="1" stop-color="#8c6722"/>
    </linearGradient>
    <filter id="ec-glow"><feGaussianBlur stdDeviation="3"/></filter>
  </defs>
  <rect width="600" height="900" fill="url(#ec-bg)"/>
  <!-- neon-rain glyphs -->
  <g font-family="Courier New, monospace" font-size="14" fill="#b91c1c" opacity="0.35">
    <text x="50" y="400">01</text><text x="80" y="420">11</text><text x="110" y="460">0</text>
    <text x="60" y="480">10</text><text x="100" y="510">101</text><text x="140" y="540">1</text>
    <text x="170" y="580">0</text><text x="80" y="610">11</text><text x="140" y="650">1</text>
    <text x="180" y="680">010</text><text x="220" y="710">0</text><text x="100" y="720">11</text>
    <text x="440" y="420">01</text><text x="470" y="450">1</text><text x="420" y="480">110</text>
    <text x="480" y="510">0</text><text x="450" y="540">1</text><text x="500" y="570">11</text>
    <text x="440" y="600">01</text><text x="480" y="630">1</text><text x="430" y="660">01</text>
    <text x="490" y="700">0</text><text x="450" y="730">11</text><text x="510" y="760">0</text>
  </g>
  <!-- alley silhouette -->
  <g fill="#0b1126">
    <polygon points="0,900 0,620 180,520 180,900"/>
    <polygon points="600,900 600,580 420,500 420,900"/>
  </g>
  <!-- wet reflection -->
  <rect x="180" y="860" width="240" height="40" fill="#1a1f3a" opacity="0.6"/>
  <!-- neon red glyph -->
  <g font-family="Courier New, monospace" font-size="90" font-weight="700" fill="#e11d48" filter="url(#ec-glow)">
    <text x="300" y="620" text-anchor="middle" opacity="0.85">⟨/⟩</text>
  </g>
  <g font-family="Courier New, monospace" font-size="90" font-weight="700" fill="#fda4af">
    <text x="300" y="620" text-anchor="middle">⟨/⟩</text>
  </g>
  <!-- title -->
  <g font-family="Playfair Display, Georgia, serif" text-anchor="middle">
    <text x="300" y="180" font-size="42" font-weight="700" fill="url(#ec-gold)" letter-spacing="3">EL ÚLTIMO</text>
    <text x="300" y="225" font-size="30" fill="#efd07f" letter-spacing="6">CÓDIGO</text>
  </g>
  <line x1="210" y1="830" x2="390" y2="830" stroke="#d4b676" stroke-width="0.8" opacity="0.6"/>
  <text x="300" y="860" font-family="Inter, sans-serif" font-size="10" fill="#a39472" text-anchor="middle" letter-spacing="4">DAYAH · THRILLER</text>
</svg>
